<svg width="10" height="11" viewBox="0 0 10 11" fill="none" xmlns="http://www.w3.org/2000/svg">
<path d="M3.66667 0C2 0 0.666667 1.22222 0.666667 2.75C0.666667 3.12278 0.753333 3.48944 0.913333 3.83167C0.333333 4.35111 0 5.06 0 5.80556C0 7.33333 1.33333 8.55556 3 8.55556C3.33333 8.55556 3.66667 8.48833 4 8.38444V11H5.33333V7.80389C5.66667 7.88944 6 7.94444 6.33333 7.94444C6.81485 7.94444 7.29165 7.85751 7.73651 7.68859C8.18137 7.51968 8.58558 7.27211 8.92606 6.96C9.26654 6.64789 9.53662 6.27736 9.72089 5.86958C9.90516 5.46179 10 5.02472 10 4.58333C10 4.14195 9.90516 3.70488 9.72089 3.29709C9.53662 2.8893 9.26654 2.51878 8.92606 2.20667C8.58558 1.89456 8.18137 1.64698 7.73651 1.47807C7.29165 1.30916 6.81485 1.22222 6.33333 1.22222C6.27333 1.22222 6.22 1.22222 6.16 1.22222C5.60667 0.464444 4.66667 0 3.66667 0ZM3.66667 1.22222C4.54667 1.22222 5.27333 1.85167 5.33333 2.65833C5.64 2.51778 6 2.44444 6.33333 2.44444C6.95217 2.44444 7.54566 2.66979 7.98325 3.07091C8.42083 3.47203 8.66667 4.01606 8.66667 4.58333C8.66667 5.1506 8.42083 5.69464 7.98325 6.09576C7.54566 6.49688 6.95217 6.72222 6.33333 6.72222C5.69333 6.72222 5.08667 6.48389 4.64 6.05611C4.50667 6.79556 3.81333 7.33333 3 7.33333C2.55797 7.33333 2.13405 7.17237 1.82149 6.88586C1.50893 6.59934 1.33333 6.21075 1.33333 5.80556C1.33333 4.96222 1.86667 4.60778 2.66667 4.14944C2.13333 3.52 2 3.15333 2 2.75C2 2.34481 2.17559 1.95621 2.48816 1.6697C2.80072 1.38318 3.22464 1.22222 3.66667 1.22222Z" fill="black"/>
</svg>
