<svg width="12" height="12" viewBox="0 0 12 12" fill="none" xmlns="http://www.w3.org/2000/svg">
<path d="M8.25 2.75C8.51522 2.75 8.76957 2.64464 8.95711 2.45711C9.14464 2.26957 9.25 2.01522 9.25 1.75C9.25 1.48478 9.14464 1.23043 8.95711 1.04289C8.76957 0.855357 8.51522 0.75 8.25 0.75C7.98478 0.75 7.73043 0.855357 7.54289 1.04289C7.35536 1.23043 7.25 1.48478 7.25 1.75C7.25 2.01522 7.35536 2.26957 7.54289 2.45711C7.73043 2.64464 7.98478 2.75 8.25 2.75ZM6.45 9.7L6.95 7.5L8 8.5V11.5H9V7.75L7.95 6.75L8.25 5.25C8.945 6.045 9.945 6.5 11 6.5V5.5C10.12 5.515 9.3 5.055 8.85 4.3L8.35 3.5C8.17 3.2 7.85 3 7.5 3C7.35 3 7.25 3.05 7.1 3.05L4.5 4.15V6.5H5.5V4.8L6.4 4.45L5.6 8.5L3.15 8L2.95 9L6.45 9.7ZM2 4.5C1.86739 4.5 1.74021 4.44732 1.64645 4.35355C1.55268 4.25979 1.5 4.13261 1.5 4C1.5 3.86739 1.55268 3.74021 1.64645 3.64645C1.74021 3.55268 1.86739 3.5 2 3.5H3.5V4.5H2ZM2.5 2.5C2.36739 2.5 2.24021 2.44732 2.14645 2.35355C2.05268 2.25979 2 2.13261 2 2C2 1.86739 2.05268 1.74021 2.14645 1.64645C2.24021 1.55268 2.36739 1.5 2.5 1.5H5V2.5H2.5ZM1.5 6.5C1.36739 6.5 1.24021 6.44732 1.14645 6.35355C1.05268 6.25979 1 6.13261 1 6C1 5.86739 1.05268 5.74021 1.14645 5.64645C1.24021 5.55268 1.36739 5.5 1.5 5.5H3.5V6.5H1.5Z" fill="black"/>
</svg>
